<mxfile modified="2023-02-03T00:49:38.811Z" host="app.diagrams.net" agent="5.0 (Windows NT 10.0; WOW64) AppleWebKit/537.36 (KHTML, like Gecko) Chrome/109.0.0.0 Safari/537.36" etag="vA15Sfs8RDdqVhdi6GMz" version="20.8.16" type="github">
  <diagram id="Ht1M8jgEwFfnCIfOTk4-" name="Page-1">
    <mxGraphModel dx="538" dy="1109" grid="1" gridSize="10" guides="1" tooltips="1" connect="1" arrows="1" fold="1" page="1" pageScale="1" pageWidth="1169" pageHeight="827" math="0" shadow="0">
      <root>
        <mxCell id="0" />
        <mxCell id="1" parent="0" />
        <mxCell id="QkpqlWv-1yGo-JICpGCP-7" value="EC2 instance contents" style="points=[[0,0],[0.25,0],[0.5,0],[0.75,0],[1,0],[1,0.25],[1,0.5],[1,0.75],[1,1],[0.75,1],[0.5,1],[0.25,1],[0,1],[0,0.75],[0,0.5],[0,0.25]];outlineConnect=0;gradientColor=none;html=1;whiteSpace=wrap;fontSize=12;fontStyle=0;container=0;pointerEvents=0;collapsible=0;recursiveResize=0;shape=mxgraph.aws4.group;grIcon=mxgraph.aws4.group_ec2_instance_contents;strokeColor=#D86613;fillColor=none;verticalAlign=top;align=left;spacingLeft=30;fontColor=#D86613;dashed=0;" parent="1" vertex="1">
          <mxGeometry x="250" y="-70" width="620" height="350" as="geometry" />
        </mxCell>
        <mxCell id="QkpqlWv-1yGo-JICpGCP-100" style="edgeStyle=orthogonalEdgeStyle;rounded=0;orthogonalLoop=1;jettySize=auto;html=1;entryX=0;entryY=0.5;entryDx=0;entryDy=0;" parent="1" source="QkpqlWv-1yGo-JICpGCP-1" target="QkpqlWv-1yGo-JICpGCP-2" edge="1">
          <mxGeometry relative="1" as="geometry" />
        </mxCell>
        <mxCell id="QkpqlWv-1yGo-JICpGCP-1" value="" style="verticalLabelPosition=bottom;html=1;verticalAlign=top;align=center;strokeColor=none;fillColor=#0f0f0f;shape=mxgraph.azure.git_repository;" parent="1" vertex="1">
          <mxGeometry x="160" y="160" width="40" height="40" as="geometry" />
        </mxCell>
        <mxCell id="QkpqlWv-1yGo-JICpGCP-99" style="edgeStyle=orthogonalEdgeStyle;rounded=0;orthogonalLoop=1;jettySize=auto;html=1;entryX=0;entryY=0.5;entryDx=0;entryDy=0;entryPerimeter=0;" parent="1" source="QkpqlWv-1yGo-JICpGCP-98" target="QkpqlWv-1yGo-JICpGCP-1" edge="1">
          <mxGeometry relative="1" as="geometry" />
        </mxCell>
        <mxCell id="QkpqlWv-1yGo-JICpGCP-98" value="" style="shape=image;verticalLabelPosition=bottom;labelBackgroundColor=default;verticalAlign=top;aspect=fixed;imageAspect=0;image=https://upload.wikimedia.org/wikipedia/commons/thumb/9/9c/IntelliJ_IDEA_Icon.svg/800px-IntelliJ_IDEA_Icon.svg.png;" parent="1" vertex="1">
          <mxGeometry x="60" y="160" width="40" height="40" as="geometry" />
        </mxCell>
        <mxCell id="QkpqlWv-1yGo-JICpGCP-101" style="edgeStyle=orthogonalEdgeStyle;rounded=0;orthogonalLoop=1;jettySize=auto;html=1;entryX=0.5;entryY=1;entryDx=0;entryDy=0;" parent="1" source="QkpqlWv-1yGo-JICpGCP-2" target="QkpqlWv-1yGo-JICpGCP-3" edge="1">
          <mxGeometry relative="1" as="geometry" />
        </mxCell>
        <mxCell id="QkpqlWv-1yGo-JICpGCP-104" style="edgeStyle=orthogonalEdgeStyle;rounded=0;orthogonalLoop=1;jettySize=auto;html=1;entryX=0;entryY=0.5;entryDx=0;entryDy=0;" parent="1" source="QkpqlWv-1yGo-JICpGCP-2" target="QkpqlWv-1yGo-JICpGCP-6" edge="1">
          <mxGeometry relative="1" as="geometry" />
        </mxCell>
        <mxCell id="QkpqlWv-1yGo-JICpGCP-2" value="" style="shape=image;verticalLabelPosition=bottom;labelBackgroundColor=default;verticalAlign=top;aspect=fixed;imageAspect=0;image=https://crispyblog.kr:5000/static/img/postImg/da5a8caf-6ccc-4aa2-b8d1-d673a3f0a4e6_jenkins.png;" parent="1" vertex="1">
          <mxGeometry x="300" y="155" width="50.97" height="50.97" as="geometry" />
        </mxCell>
        <mxCell id="QkpqlWv-1yGo-JICpGCP-105" style="edgeStyle=orthogonalEdgeStyle;rounded=0;orthogonalLoop=1;jettySize=auto;html=1;entryX=-0.018;entryY=0.459;entryDx=0;entryDy=0;entryPerimeter=0;endArrow=blockThin;endFill=1;" parent="1" source="QkpqlWv-1yGo-JICpGCP-6" target="QkpqlWv-1yGo-JICpGCP-10" edge="1">
          <mxGeometry relative="1" as="geometry">
            <Array as="points">
              <mxPoint x="437" y="233" />
            </Array>
          </mxGeometry>
        </mxCell>
        <mxCell id="QkpqlWv-1yGo-JICpGCP-6" value="" style="shape=image;verticalLabelPosition=bottom;labelBackgroundColor=default;verticalAlign=top;aspect=fixed;imageAspect=0;image=https://upload.wikimedia.org/wikipedia/commons/thumb/2/24/Ansible_logo.svg/1200px-Ansible_logo.svg.png;" parent="1" vertex="1">
          <mxGeometry x="420" y="155" width="33.25" height="40.97" as="geometry" />
        </mxCell>
        <mxCell id="QkpqlWv-1yGo-JICpGCP-102" style="edgeStyle=orthogonalEdgeStyle;rounded=0;orthogonalLoop=1;jettySize=auto;html=1;entryX=0.25;entryY=1;entryDx=0;entryDy=0;" parent="1" source="QkpqlWv-1yGo-JICpGCP-3" target="QkpqlWv-1yGo-JICpGCP-97" edge="1">
          <mxGeometry relative="1" as="geometry" />
        </mxCell>
        <mxCell id="QkpqlWv-1yGo-JICpGCP-3" value="" style="shape=image;verticalLabelPosition=bottom;labelBackgroundColor=default;verticalAlign=top;aspect=fixed;imageAspect=0;image=data:image/png,iVBORw0KGgoAAAANSUhEUgAAAN0AAADkCAMAAAArb9FNAAAAyVBMVEX///8DLzw51S0AKjgl0xMr0xzx/PDR88+p6qYw1CIAIDAALDkAGyyt6qoz1CYn0xYAJDP2/fYAEyfi+OEADCOI4oNu3mgb0gBd21WwuLsAGCoAHi4ACyLE8MEAAB0AJza7w8U5U1yEkZba3uAfQEz09vbIztC17bLo+efn6uueqKxU2UuR5YyWoKS+77vY9dd2hIowSlRabHPS19l132/M8sqe6JqF4oAPNkJE1zlPY2tmdn3DycyY5pSr6qhwf4VN2ENx3msAABUR8yv7AAAR+klEQVR4nO1dCXeyOhO2AraKZZOKW7Vuda91aa3d3/v/f9THkkAIAQLB7Tt9zr3n9JUtT5aZycwkyeX+8Ic//OEP/58Y9h+mi15vMa1vhqcuS8b47K3aWrlZUpRSs6y1lPW0f+oiZYXJc0lTuCsEYqekX/U2py5YBpis24p4FYSo6IP6qQvHioXeIVBzwDXeLpvfuxbKzW5AbXXB/bNbiiRntV+7d+pCpkWvEUfORHk1OXU504GG3NVVp3yRvbPfomJ3JbY+T13UFBjStZ2J9sOpy5oCzwotvdYFds5Jm5adqF2gaPmgbjxucOqyJgcuV0SRZJTZaD6furDJsXbtMFEp6/rV4E1pa02ORK/9eOrCJgYceVxDeX5whtZwM+3qhB57iX3zuWwVXFs9+H7tf7SC7deYnqaILFjpZf3tIfDz5i3QfGLzAiftn3XyPHxdxumVLtagJuAjQE+7wMYLxRqfH/1fNV5ugIkWUTl1ibLEBJ9ENC7XEzF+ealgPy2amM7rnqRkzFDnksHzvDxXfT9fYZZZ+wKN6VxuZAh5G4K8RH+vY3KzeYEaPfdt5CEkfoxe0S+/ay49cia9GXrpA3N3XqDKq0kuNfN//h65hHfNxsW5WCqw6eT9Ly/lpdrL/Wh043TQPubOvTyFPi8Cck85tTAz6cmybMwc4TnEVB73fuLCJgYQl1Lt2zBmW7uXyv/gRdxvVj5lSVPghYeDzqQp2eT4uXsVN6VbF6bxtsU8Bv7GvTjEVMKVdmG+PxknV/RaLjfBg0Tl45iaw8nQ/I/9PU8BdsLIu/qIj7tDWitW7L637r412q2WbqLVbnGr9c+CIZQ/k3B2/LV3dXqkOd6k3nt/07VGSelwqG0rcpxSKmutq/feQ4oRf83j5PI8Ykmv8dCskr1fczNdl/WywoX6Um2WSkPv/NQTMgw2nVRDLuNCJWt2k/q6pJWIDlQCRaXcWi0SpGOMgk1nKnUXn4EwkfKTHbX+YqA3w+P2ZIYl7W1B2YJqkFxeQK7jRnSG7Pq9N5220XCC7S6V5K4GdF1eePUuD4NJA9n0zOF0oJeixlkMuEazF9uAN4SmkxGZ0gtmDWTBbvPRJscqkkBpf0SPQN+8DsBARh0pOMuuET67ETkyifi11hH8CkKQHL9DbiA0HbM273d15mZz0WmvQ/vnb0AZ5A2UHDFrgNES67Wz42bz05/Jdkw10HQCP0JvWJEK0mAJ4w1XAe89M0rE2NQdZl9KMu939/WIJdEZZkDDt2wGHIbGKjD8loYhC0XJQVHgjdrI78p8JKcMtNOTy60OQo6c7lV5+trVZvv9vrad317jVycNojoS39KTW1DnxyRGc5AoXXYYkh/Q+UjPLvsx54FrLRKQw8M/EKUEL8HwGJ0tyYpGl1YiTLiwEcLgz5w2Q96ZETiNThV/NkKVkp7eG7CITQZlRaNLMfp64QlWIkNaBx4uOwC41k9M7fejNC6LDf1wSKniFrD1HDH8hj+RplL5IT27QCT3QPz0jxBzavKsRefFtVmccGFyOGt0NMJiimH9nZRBhYJbMZA7uND0ICpac7347DttMew/9LqtcmzdMmi7HHGmf0BwpYamKdwbV9K0MpWLQ2dbHkSaLx4YETmZgVsZjEy78QL+w3MCs9fhBI1HD8aOmSSL/vjIIP/08NZYamQR/mkyODEPixZTPK1vWxBHMDbTobNm4PbQbXfsP1g80IeExjC1e9O4K+3B/vMYtnRypFd29U7ZajCQhRUZpjsZ0sqUzQD6n/TN+TZeyln5R9ttK5DJQ28b0UFsEJclJ0K6eesjh8462rY1UM/WmBYHm2dFYySYygfda/s+CqQu0YOfGna49PGZYyGYSh2844ZXy268DfUknaYaoDx4fB6kptdObmJOgstRQB2tKRfGKe8UBfZ8kMEwOCVSpPb1FULNO5VEOY1tftAs7nRTu35SC+PkK0P7xJk+aDwqrVD++KSpBQ30qg3qp0ykVJOnQ/fJQRZYTRQOJO1nWKYpI2y7H6Sdufe3BEJGT9p0kzBHRuc9WNFEtHuUATHohEQlcWmR2/Q6Mf49iMSjbhgu7XRHCMSsuBVb9dwP3XRCAQ4DdOmEo5w3PaoXJB513fCygylw9Cy9U9rkppROGBF4IbtIhUItgS8WIX4rqa57jhIaYC3RNIJeuTsMC/0SAPwh6MwR6K86jaOjlVDXPURqa7HkGKyhgkW04sR9jVoogIDp0HtCAc1BY9EqCcOtcaIOWKz9kMYpXW0sqZRApLecuMEDNPuUN6f+3mmkSlIL8z1O1IF+MyU1MdeyuE+4JKaoWHJK+FkqdzhOaXUdcpHjAyKpEzN+CgCjEb2A3OA0O744EZPZ2ZwIGqC+HnSfQQTog2bQJV0vSeOyLIMKW/ijaR19ZauLfuIUOU7HM6D6AyrfYtLlkj80nR1u2PJo+VtsiJ1y+92p9U96geJBW6Fen+EzXTJaUg9tmKzA4Bo/D+9NXWtoOreuD2GDJudmFVQTe4/2Kyb1dZtyEtJKmBYWK1IciJr33v7j48YVXMPAnJAaotLQxcFbUy/TzoSSKvJH2iiP2CY6oaYaW7JVgoDWVXL3c5deHmjvAU3zuTpqFCXpxhXUTWeho/nTE+or7UiBdQeJw+TvyYqntLvTzXBo73qy1qhmcxkiqTOFdgsvD1xJ00ulkq4lXZbAjnLSHAD6Pa5Oj+TpG2fpQw9B4lWS+PrmcwZlPiCCBOrg1FASezCPlAeWBcRO4pBPYCHi+SLF7mHZBj8OiXLyvJvL6ZhptuK4GIkpptmJY30pHTPVXqeX0jFTbbd44NUGmSFdAu0ZZ4D5kG6b04STn1Mh4Dyjw2U0XVK/OgC+h855QuRSkbsQbZfUwwdxERPXUtqVMJcw+xGvUpLLXcKwS9svc5OzzsV3kFJe5kh7eZwf0m9jd7wlPqlRTp+zfv4ik2UdDGXo54RwsrLT4e0sk50RMK2tO3srkyEh/8wXZ115CUmpcPY2NNNmyYEd484MoshA7uxnCGwrWs9dmbNtBH3mThXGDVt7522qMO7FRH82zUnAuA10YKfGswLrFt7nbWY2mSTmufsdWLfaPW92Ohu5w+++ISZLAPOBeef89KunaEpX1kqD1WqgaI1US4KZdzg4IDul9Q43q5189gZxe6QQwLwH9MHYcfhGPv1eI+mCfOb9u2nZKc0y3VYnAM3gDn2mUSsms2rZNgGgZSc2yj/Ten3x3qa1SvUQz/giUf9kPuaHhl3DPcls2KNLxNRDfXTDjxZ192TbrchCvL7zZwpPVhSdqxXlgPzs0DYf+4kOsew4BRtAwUO+cDRiBPma0tvBtD2FjbiwMlzLgtKLGXzxeWp1whl9pBcxb5Icx04jiL7o9haVeEnXv6Ix3hXmTZJjZkD6A+GZYaTeokqZGXYphi87u+jlMSXy5udRy6Foo1Ef8YOPfYPrSM9DaCg+IimQejYdXAcWqChmdpFeIy3MzgtfvZCgvqdxy4bY2UV5/CK0aahgSXIsTz2GHrvMjNoaMyK0FLbqNplzNYYeyz7CDiI87ZFRwZBKaSSze6PpsdsqEVGSyA2DyCHbxAdM1KOyJ9kPtYvYdCNS+pGTCZKuAM9Frrxn3VrRRKhUibHySLWSxqjvRei9RkpOHkIjyzHTfpIJl8pTELG5CvvJYaGyPWYnK5KiTOcXD186z35yWJgpFjekCcI2rYwL9TqynxwWZqzEaa7AIWbpCzMJs8rZQpMW6v81EJRd/BeXeFZulvxQ/kvr5Hlscz6IACVmdT58QFH3EFfU6cJGD0HqQkxXXQQDF8yOlT/84Q9/+MMfcKgvr9vabD+r7W6W8XdfFl7+8bx1QlTePh9K3h2I4NPIwq399vHt6MmCGvcQK+73vP9YtqJRrRziQzNeMGHYRwq/GLIFo3CID3ko1PjgkXOS8XWATzkHsgs2O3CkK39Ydi9y8AxL+6THWvZ95ujsRoRTHkH33GdO79jsnhBykjUoil4vlfZZf+3I7JDzOQWj9mXKs6+Z4fbUYjXjzx2XneoREW5gPyzsXMr8d7bfOy479wB4oYqOsaXbPTOW10dldw0bSdj5L4zhwZ3FHfnJlDgqO3jOtu90bRsu72wb75js3CPS+aDov3P6rGTMs/ziMdltQdM5X/PDPoS7aNSc841VtWDBrgT1/mtb8449LjzNqzPz3n1t+/pCUJDq0121VqvO761/xLNbjl7vtruvW2ZD1z1FXCBdnZs24BwamzeGja350J1lbvOwPq6rhmwZ33nH/Oa3mHk63vKyfXxrkbfO8I5ht9wVeVkoFouCaclv2Qg+gWNxi8TOt/xFjqW+FYCIWcoC0trqPwOzUIvGHfqSVwOx8uS9GsluXEPvtjrOmIHdDryLD5wZGwBkVwBsnPKpe4KFKiMSquo/qFza/yJP4+ye8JoyB/1ToCTUgC8x4m912Em7mW+kzlxyVt9z6bmTi+CB0OjTGLtbkr1rECQCHVTwuqA6CGOXdynY5bsFLSPJxr5W2xuQiwFkyyvhiPlQdi8uuaLM8+60xbhPya4CPl68i7/3FmsF2SofVJZ7Z3qtfoNxLDslqsDySoIlhwSv3xHYqfBobEH6uq8s7+/glFNOOU954dFvAYyvlxUMKsauyBv535EpdpznpRn+Rks45qB8NO/Pj0zpUBjl3X5MYHcHPsBDCafWnNtxK4oWUGQK6NnorwaPwRj72EnGFmi1W+d5HtEBzl2ODIazD2ELr/6DLwmyK4CbeaSmwRhPqe0hOxkVTK8BQWCX3mVX/HXJfJkK0GKPPO2Ux+nqQCJLyCSq5pNJKLtvIXBzbmwEu1b27JYIO6QbmlALleU1YrWAGYfDDvR7tOrhSAyyA7wNny1QtX+kEXoR7Pw9M5pd6BhXlzeuLrbZgbL7LYUaqi1Rdg5tjAgooJFKrtxDdmjTR7MD8sKPwvX3bsYjMtFmB17E+8wp+BqcHRRQ25d7BDfgFfHGBgFLqBFQqfQqS5jFgLLjA6bRcr43eNQXA9kBC71I+mSAHaxoSUYBKlq4TcMOyinfWLrZ/+4xdohUkXBuZm8MukJtdr/Bd7sGRIAdrk6Dr0sOqEBDOva17LUXsMT8Zc3NMctQQmSm86e09T8R0jOD4wF9K/YOSlShOUC2dm6Q3gjY+b+z81laRdnYOlLDZgfEJ6aLQ6RKNDusTinxDcU82a8HyBuereIvq2v2SpZlmN+NCmCw2ewICszlHMpOwE0JG/lU7Mau74QUESlAGznnsUNHgDv35ffzp6XTuf957EC/8Pt7w8bdSACdSCUiFbsIp5GJOehb2xB2sOVRYwBh9wvsKF/RKtEys5hpYGYE5QoftHagXSGPQtgBzezTRlWPHdAI/jE9CpEqbi/Kkl3OtdoD06hCHrSrU/kEdoEZgglHmaDavOgTRKG2CqEfWEg9d7Vx60o9w+9Sr0ByoHRBdmAI+cQG6HioJZY3EANgGWpnQieI4OvIOyPP4HpwR4f1kZpnMxU8RQYEDqHtQElRsTFD5whQICNjeh86R4DOYekXoXdj3sD/vqRnV/GcGRI/u7kej8fL2yrvzTOBDiCwg3e4pmflF7Wic3Mo5WHfVF03DGH2CqtZKkKbvuCoU8lIN0ewMfKF72z1grgIJDjMCexcj9q/l4Kqjp88559zG9Qo9txcVSuv3nsJ7Dy3ilzc3oxGr1U445BZBOk8zLVjwVWEBHZupEEyK0TmZa9OwG1fUCKbStpU94g5QvIabb3rRStICl8n/TKQs6bYYdwkwx2KBHa5Kjnc7t32GzSww9m5gxJDcFqSDKOAlxSUIe+ZMCR2qoA/B8cdGKwqPpnKw6FIYkd0/eYN5njCuEbgVzRQo5LELjfO+4xfyZiDP6AOVH/91rFxU43ytFcDg6QoZJEV9DIzfA0hmfa+z/b85i1vs4zNtNSd+5hUNGbXOckOiEie3TpHIgMC/5SrCdZ1xzS6NpybPcfLSJB9pTCqGSVdVF5npmSQBUG27P3tCHvtU9VGwHYYf/06dvx+btXyzrmt6jlTxndWVMcEX5yr7g22jl7W7L99WTGjmSFbCV12POlflulc6vJl9P09ul8mcyCqlevrSlQdL0evX68j2pIW7l/NKtje3ZBigX/4wx/+cGz8D8DotIGVkWZcAAAAAElFTkSuQmCC;" parent="1" vertex="1">
          <mxGeometry x="306.09" y="70" width="38.79" height="40" as="geometry" />
        </mxCell>
        <mxCell id="QkpqlWv-1yGo-JICpGCP-36" value="" style="group" parent="1" vertex="1" connectable="0">
          <mxGeometry x="650" y="-40" width="76.47999999999999" height="69.99999999999999" as="geometry" />
        </mxCell>
        <mxCell id="QkpqlWv-1yGo-JICpGCP-37" value="" style="rounded=0;whiteSpace=wrap;html=1;strokeColor=#24b8eb;fillColor=none;" parent="QkpqlWv-1yGo-JICpGCP-36" vertex="1">
          <mxGeometry x="10.146346666666664" y="19.999999999999996" width="66.33365333333332" height="49.999999999999986" as="geometry" />
        </mxCell>
        <mxCell id="QkpqlWv-1yGo-JICpGCP-38" value="" style="shape=image;verticalLabelPosition=bottom;labelBackgroundColor=default;verticalAlign=top;aspect=fixed;imageAspect=0;image=https://www.zadara.com/wp-content/uploads/docker.png;" parent="QkpqlWv-1yGo-JICpGCP-36" vertex="1">
          <mxGeometry width="46.629999999999995" height="39.99999999999999" as="geometry" />
        </mxCell>
        <mxCell id="QkpqlWv-1yGo-JICpGCP-39" value="" style="shape=image;verticalLabelPosition=bottom;labelBackgroundColor=default;verticalAlign=top;aspect=fixed;imageAspect=0;image=https://blog.kakaocdn.net/dn/cuqUXP/btrqRTHH0xr/NZKitBH114lwKn93kPZzF0/img.png;clipPath=inset(8.82% 17.33% 11.76% 20.67%);" parent="QkpqlWv-1yGo-JICpGCP-36" vertex="1">
          <mxGeometry x="21.956826666666643" y="24.999999999999993" width="45.92999999999999" height="39.99999999999999" as="geometry" />
        </mxCell>
        <mxCell id="QkpqlWv-1yGo-JICpGCP-45" value="" style="group" parent="1" vertex="1" connectable="0">
          <mxGeometry x="546" y="40" width="86.04" height="79" as="geometry" />
        </mxCell>
        <mxCell id="QkpqlWv-1yGo-JICpGCP-47" value="" style="shape=image;verticalLabelPosition=bottom;labelBackgroundColor=default;verticalAlign=top;aspect=fixed;imageAspect=0;image=https://www.zadara.com/wp-content/uploads/docker.png;" parent="QkpqlWv-1yGo-JICpGCP-45" vertex="1">
          <mxGeometry width="46.629999999999995" height="39.99999999999999" as="geometry" />
        </mxCell>
        <mxCell id="QkpqlWv-1yGo-JICpGCP-50" value="" style="group" parent="QkpqlWv-1yGo-JICpGCP-45" vertex="1" connectable="0">
          <mxGeometry x="0.580000000000009" y="19.999999999999996" width="85.46" height="59" as="geometry" />
        </mxCell>
        <mxCell id="QkpqlWv-1yGo-JICpGCP-46" value="" style="rounded=0;whiteSpace=wrap;html=1;strokeColor=#24b8eb;fillColor=none;" parent="QkpqlWv-1yGo-JICpGCP-50" vertex="1">
          <mxGeometry x="9.566346666666655" width="66.33365333333332" height="49.999999999999986" as="geometry" />
        </mxCell>
        <mxCell id="QkpqlWv-1yGo-JICpGCP-49" value="" style="shape=image;verticalLabelPosition=bottom;labelBackgroundColor=default;verticalAlign=top;aspect=fixed;imageAspect=0;image=https://images.velog.io/images/jbb9229/post/226b55e4-efa7-4601-9c1f-580ca8e46a63/1100px_Redis_Logo_01.png;" parent="QkpqlWv-1yGo-JICpGCP-50" vertex="1">
          <mxGeometry y="3.552713678800501e-15" width="85.46" height="59" as="geometry" />
        </mxCell>
        <mxCell id="QkpqlWv-1yGo-JICpGCP-103" style="edgeStyle=orthogonalEdgeStyle;rounded=0;orthogonalLoop=1;jettySize=auto;html=1;entryX=0;entryY=0.5;entryDx=0;entryDy=0;" parent="1" source="QkpqlWv-1yGo-JICpGCP-97" target="QkpqlWv-1yGo-JICpGCP-13" edge="1">
          <mxGeometry relative="1" as="geometry" />
        </mxCell>
        <mxCell id="QkpqlWv-1yGo-JICpGCP-97" value="" style="shape=image;verticalLabelPosition=bottom;labelBackgroundColor=default;verticalAlign=top;aspect=fixed;imageAspect=0;image=https://miro.medium.com/max/1400/1*gP9mZ-G1cZtQgckJRohGPw.png;" parent="1" vertex="1">
          <mxGeometry x="303" y="-32" width="88.74" height="50" as="geometry" />
        </mxCell>
        <mxCell id="QkpqlWv-1yGo-JICpGCP-14" value="" style="rounded=0;whiteSpace=wrap;html=1;strokeColor=#24b8eb;fillColor=none;" parent="1" vertex="1">
          <mxGeometry x="556.1463466666667" y="-20" width="66.33365333333332" height="49.999999999999986" as="geometry" />
        </mxCell>
        <mxCell id="QkpqlWv-1yGo-JICpGCP-4" value="" style="shape=image;verticalLabelPosition=bottom;labelBackgroundColor=default;verticalAlign=top;aspect=fixed;imageAspect=0;image=https://www.zadara.com/wp-content/uploads/docker.png;" parent="1" vertex="1">
          <mxGeometry x="546" y="-40" width="46.629999999999995" height="39.99999999999999" as="geometry" />
        </mxCell>
        <mxCell id="QkpqlWv-1yGo-JICpGCP-16" value="" style="shape=image;verticalLabelPosition=bottom;labelBackgroundColor=default;verticalAlign=top;aspect=fixed;imageAspect=0;image=https://blog.kakaocdn.net/dn/cuqUXP/btrqRTHH0xr/NZKitBH114lwKn93kPZzF0/img.png;clipPath=inset(8.82% 17.33% 11.76% 20.67%);" parent="1" vertex="1">
          <mxGeometry x="567.9568266666666" y="-15.000000000000007" width="45.92999999999999" height="39.99999999999999" as="geometry" />
        </mxCell>
        <mxCell id="QkpqlWv-1yGo-JICpGCP-51" value="" style="group" parent="1" vertex="1" connectable="0">
          <mxGeometry x="650" y="40" width="86.04" height="79" as="geometry" />
        </mxCell>
        <mxCell id="QkpqlWv-1yGo-JICpGCP-52" value="" style="shape=image;verticalLabelPosition=bottom;labelBackgroundColor=default;verticalAlign=top;aspect=fixed;imageAspect=0;image=https://www.zadara.com/wp-content/uploads/docker.png;" parent="QkpqlWv-1yGo-JICpGCP-51" vertex="1">
          <mxGeometry width="46.629999999999995" height="39.99999999999999" as="geometry" />
        </mxCell>
        <mxCell id="QkpqlWv-1yGo-JICpGCP-53" value="" style="group" parent="QkpqlWv-1yGo-JICpGCP-51" vertex="1" connectable="0">
          <mxGeometry x="0.580000000000009" y="19.999999999999996" width="85.46" height="59" as="geometry" />
        </mxCell>
        <mxCell id="QkpqlWv-1yGo-JICpGCP-54" value="" style="rounded=0;whiteSpace=wrap;html=1;strokeColor=#24b8eb;fillColor=none;" parent="QkpqlWv-1yGo-JICpGCP-53" vertex="1">
          <mxGeometry x="9.566346666666655" width="66.33365333333332" height="49.999999999999986" as="geometry" />
        </mxCell>
        <mxCell id="QkpqlWv-1yGo-JICpGCP-55" value="" style="shape=image;verticalLabelPosition=bottom;labelBackgroundColor=default;verticalAlign=top;aspect=fixed;imageAspect=0;image=https://images.velog.io/images/jbb9229/post/226b55e4-efa7-4601-9c1f-580ca8e46a63/1100px_Redis_Logo_01.png;" parent="QkpqlWv-1yGo-JICpGCP-53" vertex="1">
          <mxGeometry y="3.552713678800501e-15" width="85.46" height="59" as="geometry" />
        </mxCell>
        <mxCell id="QkpqlWv-1yGo-JICpGCP-61" value="" style="rounded=0;whiteSpace=wrap;html=1;strokeColor=#24b8eb;fillColor=none;" parent="1" vertex="1">
          <mxGeometry x="607.3363466666666" y="138" width="66.33365333333332" height="49.999999999999986" as="geometry" />
        </mxCell>
        <mxCell id="QkpqlWv-1yGo-JICpGCP-58" value="" style="shape=image;verticalLabelPosition=bottom;labelBackgroundColor=default;verticalAlign=top;aspect=fixed;imageAspect=0;image=https://blog.kakaocdn.net/dn/baDI50/btriGUnOcRi/w2MsYaPe5PEfjsbUUqvGF0/img.png;" parent="1" vertex="1">
          <mxGeometry x="631.6299999999999" y="143" width="33.45" height="40" as="geometry" />
        </mxCell>
        <mxCell id="QkpqlWv-1yGo-JICpGCP-59" value="" style="shape=image;verticalLabelPosition=bottom;labelBackgroundColor=default;verticalAlign=top;aspect=fixed;imageAspect=0;image=https://www.zadara.com/wp-content/uploads/docker.png;" parent="1" vertex="1">
          <mxGeometry x="585" y="128" width="46.629999999999995" height="39.99999999999999" as="geometry" />
        </mxCell>
        <mxCell id="QkpqlWv-1yGo-JICpGCP-13" value="" style="rounded=0;whiteSpace=wrap;html=1;fillColor=none;strokeColor=#326de6;movable=0;resizable=0;rotatable=0;deletable=0;editable=0;connectable=0;" parent="1" vertex="1">
          <mxGeometry x="512.12" y="-62" width="255.64999999999998" height="300.40932183129456" as="geometry" />
        </mxCell>
        <mxCell id="QkpqlWv-1yGo-JICpGCP-10" value="" style="shape=image;verticalLabelPosition=bottom;labelBackgroundColor=default;verticalAlign=top;aspect=fixed;imageAspect=0;image=https://d1.awsstatic.com/PAC/kuberneteslogo.eabc6359f48c8e30b7a138c18177f3fd39338e05.png;" parent="1" vertex="1">
          <mxGeometry x="573.2629583333332" y="208.80087261425666" width="70.33239829461688" height="53.333529505518584" as="geometry" />
        </mxCell>
        <mxCell id="QkpqlWv-1yGo-JICpGCP-57" value="" style="shape=image;verticalLabelPosition=bottom;labelBackgroundColor=default;verticalAlign=top;aspect=fixed;imageAspect=0;image=https://static.javatpoint.com/mysql/images/mysql-tutorial.png;" parent="1" vertex="1">
          <mxGeometry x="690" y="90" width="70" height="70" as="geometry" />
        </mxCell>
      </root>
    </mxGraphModel>
  </diagram>
</mxfile>
